<svg xmlns="http://www.w3.org/2000/svg" viewBox="0 0 1500 500" shape-rendering="crispEdges">

  <!-- ── SKY ── -->
  <rect width="1500" height="500" fill="#060606"/>

  <!-- ── STARS — bright (4×4) ── -->
  <rect x="48"   y="28"  width="4" height="4" fill="#d8d4c0"/>
  <rect x="180"  y="14"  width="4" height="4" fill="#d4d0bc"/>
  <rect x="312"  y="52"  width="4" height="4" fill="#ccc8b4"/>
  <rect x="420"  y="22"  width="4" height="4" fill="#d8d4c0"/>
  <rect x="588"  y="40"  width="4" height="4" fill="#d4d0bc"/>
  <rect x="744"  y="10"  width="4" height="4" fill="#d8d4c0"/>
  <rect x="900"  y="34"  width="4" height="4" fill="#ccc8b4"/>
  <rect x="1032" y="18"  width="4" height="4" fill="#d4d0bc"/>
  <rect x="1164" y="48"  width="4" height="4" fill="#d8d4c0"/>
  <rect x="1320" y="12"  width="4" height="4" fill="#ccc8b4"/>
  <rect x="1440" y="38"  width="4" height="4" fill="#d4d0bc"/>
  <rect x="96"   y="84"  width="4" height="4" fill="#d8d4c0"/>
  <rect x="240"  y="100" width="4" height="4" fill="#d4d0bc"/>
  <rect x="492"  y="72"  width="4" height="4" fill="#ccc8b4"/>
  <rect x="660"  y="88"  width="4" height="4" fill="#d8d4c0"/>
  <rect x="828"  y="56"  width="4" height="4" fill="#d4d0bc"/>
  <rect x="1104" y="66"  width="4" height="4" fill="#d8d4c0"/>
  <rect x="1380" y="80"  width="4" height="4" fill="#ccc8b4"/>

  <!-- ── STARS — medium (2×2) ── -->
  <rect x="24"   y="68"  width="2" height="2" fill="#787060"/>
  <rect x="132"  y="44"  width="2" height="2" fill="#807868"/>
  <rect x="216"  y="132" width="2" height="2" fill="#787060"/>
  <rect x="276"  y="76"  width="2" height="2" fill="#706860"/>
  <rect x="360"  y="108" width="2" height="2" fill="#787060"/>
  <rect x="468"  y="156" width="2" height="2" fill="#706858"/>
  <rect x="534"  y="92"  width="2" height="2" fill="#787060"/>
  <rect x="624"  y="140" width="2" height="2" fill="#807868"/>
  <rect x="720"  y="64"  width="2" height="2" fill="#787060"/>
  <rect x="780"  y="116" width="2" height="2" fill="#706858"/>
  <rect x="864"  y="96"  width="2" height="2" fill="#787060"/>
  <rect x="948"  y="156" width="2" height="2" fill="#807868"/>
  <rect x="1008" y="68"  width="2" height="2" fill="#787060"/>
  <rect x="1080" y="124" width="2" height="2" fill="#706860"/>
  <rect x="1140" y="80"  width="2" height="2" fill="#787060"/>
  <rect x="1212" y="140" width="2" height="2" fill="#807868"/>
  <rect x="1260" y="92"  width="2" height="2" fill="#787060"/>
  <rect x="1356" y="116" width="2" height="2" fill="#706858"/>
  <rect x="1404" y="68"  width="2" height="2" fill="#787060"/>
  <rect x="1476" y="104" width="2" height="2" fill="#807868"/>
  <rect x="72"   y="148" width="2" height="2" fill="#606058"/>
  <rect x="156"  y="192" width="2" height="2" fill="#606058"/>
  <rect x="384"  y="184" width="2" height="2" fill="#585850"/>
  <rect x="504"  y="216" width="2" height="2" fill="#606058"/>
  <rect x="648"  y="200" width="2" height="2" fill="#585850"/>
  <rect x="804"  y="172" width="2" height="2" fill="#606058"/>
  <rect x="912"  y="216" width="2" height="2" fill="#585850"/>
  <rect x="1056" y="188" width="2" height="2" fill="#606058"/>
  <rect x="1188" y="212" width="2" height="2" fill="#585850"/>
  <rect x="1344" y="196" width="2" height="2" fill="#606058"/>
  <rect x="60"   y="256" width="2" height="2" fill="#484840"/>
  <rect x="192"  y="280" width="2" height="2" fill="#484840"/>
  <rect x="432"  y="244" width="2" height="2" fill="#404038"/>
  <rect x="576"  y="268" width="2" height="2" fill="#484840"/>
  <rect x="756"  y="252" width="2" height="2" fill="#404038"/>
  <rect x="960"  y="272" width="2" height="2" fill="#484840"/>
  <rect x="1128" y="260" width="2" height="2" fill="#404038"/>
  <rect x="1296" y="244" width="2" height="2" fill="#484840"/>
  <rect x="1452" y="276" width="2" height="2" fill="#404038"/>

  <!-- ── CRESCENT MOON — top right ── -->
  <!-- outer arc left side -->
  <rect x="1362" y="32"  width="8" height="8" fill="#d0c890"/>
  <rect x="1354" y="40"  width="8" height="8" fill="#d0c890"/>
  <rect x="1350" y="48"  width="8" height="8" fill="#d0c890"/>
  <rect x="1350" y="56"  width="8" height="8" fill="#d0c890"/>
  <rect x="1354" y="64"  width="8" height="8" fill="#d0c890"/>
  <rect x="1362" y="72"  width="8" height="8" fill="#d0c890"/>
  <!-- outer arc top/bottom -->
  <rect x="1370" y="24"  width="16" height="8" fill="#d0c890"/>
  <rect x="1370" y="80"  width="16" height="8" fill="#d0c890"/>
  <!-- right side filled (crescent only shows left) -->
  <rect x="1386" y="32"  width="8"  height="8" fill="#d0c890"/>
  <rect x="1394" y="40"  width="8"  height="8" fill="#d0c890"/>
  <!-- right side blocked by dark overlay to create crescent -->
  <rect x="1378" y="32"  width="16" height="8" fill="#060606"/>
  <rect x="1374" y="40"  width="16" height="8" fill="#060606"/>
  <rect x="1370" y="48"  width="18" height="24" fill="#060606"/>
  <rect x="1374" y="64"  width="16" height="8" fill="#060606"/>
  <rect x="1378" y="72"  width="16" height="8" fill="#060606"/>

  <!-- ── HORIZON GLOW — warm amber bands ── -->
  <rect x="0" y="380" width="1500" height="6" fill="#0c0500"/>
  <rect x="0" y="386" width="1500" height="6" fill="#160a00"/>
  <rect x="0" y="392" width="1500" height="6" fill="#220f00"/>
  <rect x="0" y="398" width="1500" height="6" fill="#2e1400"/>

  <!-- ── SAND ── -->
  <rect x="0" y="404" width="1500" height="6"  fill="#b07a28"/> <!-- bright surface -->
  <rect x="0" y="410" width="1500" height="6"  fill="#8a5e1a"/> <!-- surface -->
  <rect x="0" y="416" width="1500" height="44" fill="#6e4a14"/> <!-- body -->
  <rect x="0" y="460" width="1500" height="40" fill="#543a0e"/> <!-- deep -->

  <!-- sand texture patches -->
  <rect x="80"   y="420" width="24" height="6" fill="#5e3e10"/>
  <rect x="240"  y="430" width="36" height="6" fill="#5e3e10"/>
  <rect x="460"  y="422" width="18" height="6" fill="#5e3e10"/>
  <rect x="660"  y="434" width="30" height="6" fill="#5e3e10"/>
  <rect x="840"  y="424" width="24" height="6" fill="#5e3e10"/>
  <rect x="1020" y="436" width="36" height="6" fill="#5e3e10"/>
  <rect x="1200" y="426" width="18" height="6" fill="#5e3e10"/>
  <rect x="1380" y="432" width="30" height="6" fill="#5e3e10"/>
  <rect x="160"  y="448" width="42" height="6" fill="#4a3008"/>
  <rect x="520"  y="452" width="30" height="6" fill="#4a3008"/>
  <rect x="880"  y="446" width="42" height="6" fill="#4a3008"/>
  <rect x="1240" y="450" width="30" height="6" fill="#4a3008"/>

  <!-- ── FOOTPRINT TRAIL — crab walked left to right ── -->
  <!-- Each step: 4-dot toe cluster (left foot y≈406, right foot y≈412), every 72px -->

  <!-- step 1 left  x=60  --> <rect x="50"   y="406" width="4" height="3" fill="#2e1a04"/> <rect x="56"   y="408" width="4" height="3" fill="#2e1a04"/> <rect x="62"   y="405" width="4" height="3" fill="#2e1a04"/> <rect x="67"   y="407" width="4" height="3" fill="#2e1a04"/>
  <!-- step 2 right x=132 --> <rect x="122"  y="411" width="4" height="3" fill="#2e1a04"/> <rect x="128"  y="409" width="4" height="3" fill="#2e1a04"/> <rect x="134"  y="412" width="4" height="3" fill="#2e1a04"/> <rect x="142"  y="410" width="4" height="3" fill="#2e1a04"/>
  <!-- step 3 left  x=204 --> <rect x="194"  y="406" width="4" height="3" fill="#2e1a04"/> <rect x="200"  y="408" width="4" height="3" fill="#2e1a04"/> <rect x="206"  y="405" width="4" height="3" fill="#2e1a04"/> <rect x="211"  y="407" width="4" height="3" fill="#2e1a04"/>
  <!-- step 4 right x=276 --> <rect x="266"  y="411" width="4" height="3" fill="#2e1a04"/> <rect x="272"  y="409" width="4" height="3" fill="#2e1a04"/> <rect x="278"  y="412" width="4" height="3" fill="#2e1a04"/> <rect x="286"  y="410" width="4" height="3" fill="#2e1a04"/>
  <!-- step 5 left  x=348 --> <rect x="338"  y="406" width="4" height="3" fill="#2e1a04"/> <rect x="344"  y="408" width="4" height="3" fill="#2e1a04"/> <rect x="350"  y="405" width="4" height="3" fill="#2e1a04"/> <rect x="355"  y="407" width="4" height="3" fill="#2e1a04"/>
  <!-- step 6 right x=420 --> <rect x="410"  y="411" width="4" height="3" fill="#2e1a04"/> <rect x="416"  y="409" width="4" height="3" fill="#2e1a04"/> <rect x="422"  y="412" width="4" height="3" fill="#2e1a04"/> <rect x="430"  y="410" width="4" height="3" fill="#2e1a04"/>
  <!-- step 7 left  x=492 --> <rect x="482"  y="406" width="4" height="3" fill="#2e1a04"/> <rect x="488"  y="408" width="4" height="3" fill="#2e1a04"/> <rect x="494"  y="405" width="4" height="3" fill="#2e1a04"/> <rect x="499"  y="407" width="4" height="3" fill="#2e1a04"/>
  <!-- step 8 right x=564 --> <rect x="554"  y="411" width="4" height="3" fill="#2e1a04"/> <rect x="560"  y="409" width="4" height="3" fill="#2e1a04"/> <rect x="566"  y="412" width="4" height="3" fill="#2e1a04"/> <rect x="574"  y="410" width="4" height="3" fill="#2e1a04"/>
  <!-- step 9 left  x=636 --> <rect x="626"  y="406" width="4" height="3" fill="#2e1a04"/> <rect x="632"  y="408" width="4" height="3" fill="#2e1a04"/> <rect x="638"  y="405" width="4" height="3" fill="#2e1a04"/> <rect x="643"  y="407" width="4" height="3" fill="#2e1a04"/>
  <!-- step 10 right x=708 --> <rect x="698"  y="411" width="4" height="3" fill="#2e1a04"/> <rect x="704"  y="409" width="4" height="3" fill="#2e1a04"/> <rect x="710"  y="412" width="4" height="3" fill="#2e1a04"/> <rect x="718"  y="410" width="4" height="3" fill="#2e1a04"/>
  <!-- step 11 left  x=780 --> <rect x="770"  y="406" width="4" height="3" fill="#2e1a04"/> <rect x="776"  y="408" width="4" height="3" fill="#2e1a04"/> <rect x="782"  y="405" width="4" height="3" fill="#2e1a04"/> <rect x="787"  y="407" width="4" height="3" fill="#2e1a04"/>
  <!-- step 12 right x=852 --> <rect x="842"  y="411" width="4" height="3" fill="#2e1a04"/> <rect x="848"  y="409" width="4" height="3" fill="#2e1a04"/> <rect x="854"  y="412" width="4" height="3" fill="#2e1a04"/> <rect x="862"  y="410" width="4" height="3" fill="#2e1a04"/>
  <!-- step 13 left  x=924 --> <rect x="914"  y="406" width="4" height="3" fill="#2e1a04"/> <rect x="920"  y="408" width="4" height="3" fill="#2e1a04"/> <rect x="926"  y="405" width="4" height="3" fill="#2e1a04"/> <rect x="931"  y="407" width="4" height="3" fill="#2e1a04"/>
  <!-- step 14 right x=996 --> <rect x="986"  y="411" width="4" height="3" fill="#2e1a04"/> <rect x="992"  y="409" width="4" height="3" fill="#2e1a04"/> <rect x="998"  y="412" width="4" height="3" fill="#2e1a04"/> <rect x="1006" y="410" width="4" height="3" fill="#2e1a04"/>
  <!-- step 15 left  x=1068 --> <rect x="1058" y="406" width="4" height="3" fill="#2e1a04"/> <rect x="1064" y="408" width="4" height="3" fill="#2e1a04"/> <rect x="1070" y="405" width="4" height="3" fill="#2e1a04"/> <rect x="1075" y="407" width="4" height="3" fill="#2e1a04"/>
  <!-- step 16 right x=1140 --> <rect x="1130" y="411" width="4" height="3" fill="#2e1a04"/> <rect x="1136" y="409" width="4" height="3" fill="#2e1a04"/> <rect x="1142" y="412" width="4" height="3" fill="#2e1a04"/> <rect x="1150" y="410" width="4" height="3" fill="#2e1a04"/>
  <!-- step 17 left  x=1212 --> <rect x="1202" y="406" width="4" height="3" fill="#2e1a04"/> <rect x="1208" y="408" width="4" height="3" fill="#2e1a04"/> <rect x="1214" y="405" width="4" height="3" fill="#2e1a04"/> <rect x="1219" y="407" width="4" height="3" fill="#2e1a04"/>
  <!-- step 18 right x=1284 --> <rect x="1274" y="411" width="4" height="3" fill="#2e1a04"/> <rect x="1280" y="409" width="4" height="3" fill="#2e1a04"/> <rect x="1286" y="412" width="4" height="3" fill="#2e1a04"/> <rect x="1294" y="410" width="4" height="3" fill="#2e1a04"/>
  <!-- step 19 left  x=1356 --> <rect x="1346" y="406" width="4" height="3" fill="#2e1a04"/> <rect x="1352" y="408" width="4" height="3" fill="#2e1a04"/> <rect x="1358" y="405" width="4" height="3" fill="#2e1a04"/> <rect x="1363" y="407" width="4" height="3" fill="#2e1a04"/>
  <!-- step 20 right x=1428 --> <rect x="1418" y="411" width="4" height="3" fill="#2e1a04"/> <rect x="1424" y="409" width="4" height="3" fill="#2e1a04"/> <rect x="1430" y="412" width="4" height="3" fill="#2e1a04"/> <rect x="1438" y="410" width="4" height="3" fill="#2e1a04"/>

  <!-- ── TINY CRAB SILHOUETTE — right edge, stepping off screen ── -->
  <!-- 4px per cell, crab is ~13 cols × 14 rows = 52×56px, at x≈1448 y=350 -->
  <!-- hat feather -->
  <rect x="1488" y="350" width="4"  height="4"  fill="#b89830"/>
  <!-- hat crown -->
  <rect x="1460" y="354" width="36" height="8"  fill="#8b6b1a"/>
  <rect x="1488" y="354" width="4"  height="8"  fill="#d4b84a"/>
  <!-- hat band -->
  <rect x="1460" y="362" width="36" height="4"  fill="#2d5216"/>
  <!-- hat brim -->
  <rect x="1456" y="366" width="44" height="4"  fill="#6a4e10"/>
  <!-- carapace rows -->
  <rect x="1464" y="370" width="28" height="4"  fill="#e05c2b"/>
  <rect x="1460" y="374" width="36" height="4"  fill="#e05c2b"/>
  <rect x="1456" y="378" width="44" height="4"  fill="#e05c2b"/>
  <!-- eye row + pincers -->
  <rect x="1448" y="382" width="8"  height="4"  fill="#f07038"/>
  <rect x="1456" y="382" width="44" height="4"  fill="#e05c2b"/>
  <!-- eye whites -->
  <rect x="1464" y="382" width="4"  height="4"  fill="#f0ece8"/>
  <rect x="1480" y="382" width="4"  height="4"  fill="#f0ece8"/>
  <!-- pincer gap row -->
  <rect x="1448" y="386" width="4"  height="4"  fill="#f07038"/>
  <rect x="1456" y="386" width="44" height="4"  fill="#e05c2b"/>
  <!-- lower body -->
  <rect x="1452" y="390" width="8"  height="4"  fill="#f07038"/>
  <rect x="1456" y="390" width="44" height="4"  fill="#e05c2b"/>
  <rect x="1456" y="394" width="44" height="4"  fill="#e05c2b"/>
  <rect x="1460" y="398" width="36" height="4"  fill="#e05c2b"/>
  <!-- legs -->
  <rect x="1460" y="402" width="4"  height="4"  fill="#e05c2b"/>
  <rect x="1468" y="402" width="4"  height="4"  fill="#e05c2b"/>
  <rect x="1484" y="402" width="4"  height="4"  fill="#e05c2b"/>
  <rect x="1492" y="402" width="4"  height="4"  fill="#e05c2b"/>
  <rect x="1464" y="406" width="4"  height="4"  fill="#e05c2b"/>
  <rect x="1472" y="406" width="4"  height="4"  fill="#e05c2b"/>
  <rect x="1480" y="406" width="4"  height="4"  fill="#e05c2b"/>

</svg>
